inDegrees=no
num_controls=7
num_derivatives=13
num_iterations=115
num_multipliers=7
num_parameters=0
num_slacks=7
num_states=26
objective=0.477040
objective_accelerations=0.044703
objective_balance=0.003704
objective_effort=0.040847
objective_height=0.382124
objective_ligament=0.005661
solver_duration=1605.023959
status=Solve_Succeeded
success=true
DataType=double
version=3
OpenSimVersion=4.5
endheader
time	/jointset/ground_pelvis/pelvis_tilt/value	/jointset/ground_pelvis/pelvis_tx/value	/jointset/ground_pelvis/pelvis_ty/value	/jointset/hip_l/hip_flexion_l/value	/jointset/hip_l/hip_adduction_l/value	/jointset/hip_l/hip_rotation_l/value	/jointset/back/lumbar_extension/value	/jointset/patellofemoral_l/patellar_flexion_l/value	/jointset/knee_l/knee_flexion_l/value	/jointset/knee_l/knee_adduction_l/value	/jointset/knee_l/knee_rotation_l/value	/jointset/ankle_l/ankle_angle_l/value	/jointset/subtalar_l/subtalar_angle_l/value	/jointset/ground_pelvis/pelvis_tilt/speed	/jointset/ground_pelvis/pelvis_tx/speed	/jointset/ground_pelvis/pelvis_ty/speed	/jointset/hip_l/hip_flexion_l/speed	/jointset/hip_l/hip_adduction_l/speed	/jointset/hip_l/hip_rotation_l/speed	/jointset/back/lumbar_extension/speed	/jointset/patellofemoral_l/patellar_flexion_l/speed	/jointset/knee_l/knee_flexion_l/speed	/jointset/knee_l/knee_adduction_l/speed	/jointset/knee_l/knee_rotation_l/speed	/jointset/ankle_l/ankle_angle_l/speed	/jointset/subtalar_l/subtalar_angle_l/speed	/forceset/tau_hip_flexion_l	/forceset/tau_hip_adduction_l	/forceset/tau_hip_rotation_l	/forceset/tau_knee_flexion_l	/forceset/tau_ankle_angle_l	/forceset/tau_subtalar_angle_l	/forceset/tau_lumbar_extension	lambda_cid13_p0	lambda_cid13_p1	lambda_cid13_p2	lambda_cid13_p3	lambda_cid13_p4	lambda_cid13_p5	lambda_cid14_p0	/jointset/ground_pelvis/pelvis_tilt/accel	/jointset/ground_pelvis/pelvis_tx/accel	/jointset/ground_pelvis/pelvis_ty/accel	/jointset/hip_l/hip_flexion_l/accel	/jointset/hip_l/hip_adduction_l/accel	/jointset/hip_l/hip_rotation_l/accel	/jointset/back/lumbar_extension/accel	/jointset/patellofemoral_l/patellar_flexion_l/accel	/jointset/knee_l/knee_flexion_l/accel	/jointset/knee_l/knee_adduction_l/accel	/jointset/knee_l/knee_rotation_l/accel	/jointset/ankle_l/ankle_angle_l/accel	/jointset/subtalar_l/subtalar_angle_l/accel	gamma_cid13_p0	gamma_cid13_p1	gamma_cid13_p2	gamma_cid13_p3	gamma_cid13_p4	gamma_cid13_p5	gamma_cid14_p0
0.5	-0.09763920554189862	-0.04396654007061692	0.8055615952620058	0.9378389670447113	-0.3296583507438341	-0.07837670096683419	-0.7920132355912024	0.9219217972574919	0.9219217972576121	-0.1033559867038334	-0.1745148529189869	0.1457187370311642	0.01213665927929621	-0.1350619974754938	-0.1611998688708008	-0.4194036263934939	1.61331879798119	-0.02930061301987417	0.5637866727236505	-0.8350503922247073	1.781422573644601	1.781422573644619	0.1501446789404935	9.076052259119504e-05	0.4242907964580925	0.1120378955392372	-0.2729467178756566	0.02043537659731242	-0.004763888610376047	-0.2484094371557156	0.09024324366024142	0.0453534617951382	0.3286695562143392	-15.12996378485107	-18.61282765435837	4.30065427600108	-9.88441443224783	-701.4976638974371	-74.95089126271343	-9.728976703061603	0.2876205394762321	0.6832327855019774	-0.1944950542742511	-1.510462583053916	0.3338224351391765	-0.5085081948526121	1.901649353229764	-1.410417928707842	-1.410417928707848	-0.2131521906004703	-0.003386964469038028	-0.2555342799610294	0.3426932650390515	-2.534852628733081e-07	-1.468631710036458e-07	1.517448450083321e-06	1.442521847218311e-07	-2.795549187618843e-07	-7.545415130827771e-08	-2.158778031864877e-07
0.51	-0.09897524548720388	-0.04554434528742139	0.8013587685618253	0.9538942062966852	-0.3299354907693299	-0.07276339220841942	-0.8002677851481319	0.9396627250958356	0.9396627250959174	-0.1018677422826445	-0.1745139992849872	0.1499478335440362	0.01327289911930786	-0.1321253588225134	-0.1543593360003253	-0.4210657980414996	1.597505876098366	-0.02613513396300038	0.558806303147738	-0.8157722767529967	1.76650927329868	1.766509273298689	0.1475030011328833	7.771203151152142e-05	0.4214593240248646	0.115183185639009	-0.279208095091746	0.02077167250354556	-0.004906743872178841	-0.2520532597361628	0.08933725879221296	0.04537102339143856	0.3349462739380934	-15.68623324471851	-18.4603546917113	4.204725357826074	-9.68126862194924	-706.0861370767747	-74.74528090904181	-9.00584848693109	0.2997567928846733	0.6847684259177904	-0.1377450305888705	-1.650214761063267	0.3065428976679823	-0.5033152014706147	1.953979005355314	-1.569801909015275	-1.569801909016564	-0.2898487744421271	-0.0003044067850647382	-0.3073282112390534	0.2962563605207542	-2.451278805470996e-07	-1.443273983564336e-07	1.483161334549752e-06	1.401399168946151e-07	-2.672258561939412e-07	-4.756408804755198e-08	-2.121213801699887e-07
0.52	-0.100281304793044	-0.04705368419790158	0.7971421867830599	0.9697846147757985	-0.3301812495529156	-0.06720198991826581	-0.8083269362781016	0.9572469167664228	0.9572469167664676	-0.1004059492792475	-0.1745132842589724	0.1541465404353288	0.01443975375593213	-0.1290658695825044	-0.1475066076059458	-0.4221546421105121	1.580352643408879	-0.0230243646378663	0.5534053790714228	-0.7959707068327433	1.750075340093519	1.75007534009352	0.1448543953812401	6.303892612715998e-05	0.4182128721422215	0.1181608548617614	-0.285469472307832	0.0211079684097788	-0.005049599133948435	-0.2556970823166107	0.08843127392418386	0.04538858498773832	0.3412229916618506	-16.24456075969038	-18.30765031451272	4.108908207396702	-9.522505843972263	-710.7381795487262	-74.59157668446431	-8.284755572808857	0.3121906568819671	0.6856718902827775	-0.07982953847561421	-1.778524744386466	0.3228804887912318	-0.5926190949331447	2.006340242938298	-1.714544500555631	-1.714544500555591	-0.2145377794070319	-0.003711887329982295	-0.3385301698440414	0.3091690896351702	-2.412760607828377e-07	-1.949931434963366e-07	1.435373419327815e-06	1.291629180668746e-07	-2.600986295166071e-07	-3.573478356548456e-08	-2.135048603537057e-07
0.53	-0.101556177588721	-0.0484944908955758	0.7929176030310341	0.9854968896018641	-0.3303962407609522	-0.06169679343008563	-0.8161856237938897	0.974659304911894	0.9746593049118968	-0.09897064736706586	-0.1745129198759756	0.1583107636362649	0.01563547326319769	-0.1258906286839467	-0.1406579708374519	-0.4226646018313108	1.561888129219732	-0.01998592557055336	0.5475748018192267	-0.7756948238057637	1.732160702545497	1.732160702545495	0.1421986588381068	1.102734914174017e-05	0.4145688703354881	0.1209521760429443	-0.2914626508772206	0.02131571541985865	-0.005145415088822789	-0.25945645981806	0.08755812275260984	0.04527862971750606	0.347230601247571	-16.79410821387943	-18.09407222269217	3.995354341166248	-9.283784276190829	-715.2907104170151	-74.36766322171489	-7.571223425301159	0.3228775917111241	0.6839984133293318	-0.02200449037996523	-1.91257298461858	0.2923352412491282	-0.5873420329018583	2.049008210424873	-1.866118503908938	-1.866118503909311	-0.2922089484506004	-0.005487322999314474	-0.3867719061887055	0.259353154535815	-2.324263284765239e-07	-1.987362405341374e-07	1.392269965816972e-06	1.236061455191659e-07	-2.483347522110559e-07	-1.174153752504569e-08	-2.09320604405337e-07
0.54	-0.1027987606183386	-0.04986690345692572	0.7886908346215006	1.001018087640351	-0.3305812456532061	-0.05625171571293514	-0.8238393933038384	0.9918853076574885	0.9918853076574483	-0.0975621262916524	-0.1745129839147714	0.1624366594751134	0.01685815388671027	-0.1226079163706514	-0.1338277803410876	-0.4225915736120288	1.542137285892996	-0.01702710148132819	0.5413816248654704	-0.7549871056649016	1.712798260118138	1.712798260118133	0.1394982280276089	-2.264543250304526e-05	0.4105473997247261	0.1235530781111658	-0.2974558294466052	0.02152346242993886	-0.005241231043696832	-0.2632158373195089	0.08668497158103533	0.04516867444727403	0.3532382108332949	-17.34530674800433	-17.88319025372844	3.885641356616147	-9.094356534619401	-719.8961445617316	-74.19895731410871	-6.888587308248155	0.333684939829482	0.681982635856873	0.03676804954050984	-2.035790571904425	0.3069574931736747	-0.6651390352451818	2.092707265714819	-2.004105476423103	-2.004105476423121	-0.2234766328799237	-4.412826185980039e-05	-0.4140239306497308	0.2710852670428857	-2.180469908045355e-07	-1.505649183951436e-07	1.354349321007764e-06	1.240462190685137e-07	-2.31440963572158e-07	2.570968640976173e-08	-1.989762999704053e-07
0.55	-0.1040080202876694	-0.05117116705149868	0.7844677162823339	1.016335507999381	-0.3307370080839108	-0.05087034799445139	-0.8312840470571007	1.008910605638413	1.008910605638434	-0.0961807026744755	-0.1745132511221321	0.1665205348805015	0.01810596247288962	-0.1192276355427834	-0.1270337601952271	-0.4219336270754167	1.521140371610777	-0.01414075442622241	0.5348295623582431	-0.7338859774173869	1.692029994348343	1.692029994348345	0.1367818347995807	-3.369662278057984e-05	0.4061691438443891	0.1259743099257671	-0.3032233209705092	0.02167045407372603	-0.005294550545721979	-0.2669881948640641	0.08568933964542244	0.04492054741262014	0.358990157529773	-17.93752763990482	-17.60034369358244	3.759001139651028	-8.776259707668721	-724.3776189313568	-73.93188704329997	-6.241340877609775	0.3426370870253897	0.6768133179789552	0.09503358237726861	-2.162630261627199	0.2769860781525343	-0.6597688876847209	2.127465739778262	-2.147849718238234	-2.147849718237298	-0.2964292111292476	-0.001804522635558052	-0.4585046612324141	0.2223561051854857	-2.020813348373197e-07	-9.729930186659677e-08	1.311116762240768e-06	1.242484269107755e-07	-2.132575119986589e-07	6.270463418854673e-08	-1.871655227452981e-07
0.5600000000000001	-0.1051829896621694	-0.05240775012180734	0.7802541225338646	1.031436761534539	-0.3308644044907696	-0.04555640670688586	-0.8385159595007861	1.025721288443444	1.025721288443524	-0.09482658469825223	-0.1745136626230392	0.1705588720781848	0.01937692617051833	-0.1157498574045188	-0.120291675488229	-0.4206866554725769	1.498903921118694	-0.01135389671217528	0.5278963386820869	-0.7124388437495346	1.669875224939324	1.669875224939333	0.1340370998369531	-5.150414205219948e-05	0.4014397581837831	0.1281841004010374	-0.3089908124944113	0.02181744571750988	-0.005347870047745074	-0.2707605524086195	0.08469370770980808	0.04467242037796178	0.3647421042262536	-18.53206281299977	-17.32009827650495	3.63621077318149	-8.504452640602524	-728.9179027783719	-73.71722621937781	-5.63006443875589	0.3531844019087726	0.6715955480844359	0.1545730627860084	-2.283697813877473	0.287059624961944	-0.7413712690309723	2.161908349782341	-2.281406204267895	-2.281406204267857	-0.2291449797998037	-0.001395394060679713	-0.484249886703512	0.2287969991766585	-1.842120969158311e-07	-3.792053207058648e-08	1.261509906724428e-06	1.241651959045342e-07	-1.935264649036383e-07	9.915205058010482e-08	-1.735949781719803e-07
0.5700000000000001	-0.1063227454809324	-0.05357721936228174	0.7760559336792929	1.046309640549504	-0.330964340723003	-0.04031362192449185	-0.845531773410181	1.042303683536844	1.042303683536766	-0.09349989760798742	-0.174514160682819	0.1745482765978518	0.02066905732709708	-0.1121870048631601	-0.1136152727528711	-0.4188529389746932	1.475474332149311	-0.00865136715570566	0.5205994346898859	-0.6906798885342685	1.646385267066349	1.646385267066354	0.131296262350358	-5.168568391495726e-05	0.3963893915598366	0.1302058365179427	-0.3144688415457076	0.02185157917953054	-0.005355590808012627	-0.2745693729497928	0.0836582289704282	0.04432603985322411	0.3701868946545489	-19.13528404560034	-16.99230159818944	3.502001616295392	-8.144581846842074	-733.2738983814764	-73.45025826382617	-5.054971942297828	0.3599640719628545	0.6637224379851405	0.2124609402615336	-2.402244404154064	0.2589685597758116	-0.7331749578808422	2.189496546656799	-2.415536396218169	-2.415536396218614	-0.297157777007337	0.000381531766795261	-0.523185173607707	0.1832734670427516	-1.659478609129129e-07	1.652191973003451e-08	1.204873082984344e-06	1.227448905125178e-07	-1.737136931900623e-07	1.317763730031718e-07	-1.596263590163693e-07
0.58	-0.107426447095939	-0.05468031261505781	0.7718790199890946	1.060942292681639	-0.3310378278719142	-0.03514567118073459	-0.8523286762795713	1.058644629888032	1.058644629887796	-0.09220073982137042	-0.1745147183448142	0.1784856264266058	0.02198028815466394	-0.1085390166532647	-0.107016477948562	-0.4164316225979303	1.450858544552515	-0.00606408004778124	0.512929530955037	-0.6686566357486814	1.621585476497143	1.621585476497146	0.1285312391070438	-6.342458514255559e-05	0.3910288200011907	0.1320040345986591	-0.3199468705970017	0.02188571264154761	-0.00536331156825778	-0.2783781934909665	0.08262275023104668	0.04397965932848121	0.3756316850828467	-19.74176644406903	-16.66657042635465	3.371134398869086	-7.826169968091307	-737.6989834680334	-73.23150889745455	-4.516193169663516	0.3702115356160948	0.6560739618746957	0.2720930385618296	-2.520937539360128	0.2640111352529042	-0.8159712175605608	2.214767863846574	-2.543372743513859	-2.543372743513852	-0.2339821311436125	-0.003706865933649096	-0.5462908736433703	0.1840893919388867	-1.471692088039473e-07	6.453567832735748e-08	1.139080951790084e-06	1.195832789436783e-07	-1.537944894151118e-07	1.594217823509944e-07	-1.451393171489349e-07
